<svg width="16" height="15" viewBox="0 0 16 15" fill="none" xmlns="http://www.w3.org/2000/svg">
<path d="M15.4801 10.1225V13.4242C15.4801 14.0225 15.0148 14.4784 14.4813 14.4784H2.49619C1.96273 14.4784 1.49743 14.0225 1.49743 13.4242V10.1231C1.52011 10.1325 1.54177 10.1425 1.56271 10.153C1.71379 10.2286 1.85178 10.34 2.0817 10.5305L2.08615 10.5342C2.61271 10.9717 3.36054 11.5931 4.73966 11.5931C6.12026 11.5931 6.86963 10.9705 7.39658 10.5327L7.39913 10.5305C7.39917 10.5305 7.39922 10.5305 7.39927 10.5304C7.62892 10.3401 7.7671 10.2287 7.91835 10.1531C8.05191 10.0863 8.21474 10.0395 8.48427 10.0395C8.75165 10.0395 8.9192 10.0883 9.0572 10.1577C9.21173 10.2353 9.35101 10.3479 9.57243 10.5313L9.57683 10.535C10.1034 10.9717 10.8527 11.5931 12.2319 11.5931C13.6107 11.5931 14.3599 10.9727 14.8869 10.5362L14.8927 10.5314L14.8929 10.5313C15.123 10.3405 15.2614 10.2289 15.4128 10.1532C15.4344 10.1424 15.4567 10.1321 15.4801 10.1225ZM8.73846 3.32556V3.82495H9.23784H13.7323C14.6785 3.82495 15.4801 4.62969 15.4801 5.65601V7.51592C14.4122 7.64309 13.7837 8.16436 13.3244 8.5452L13.32 8.54885C13.32 8.5489 13.3199 8.54895 13.3199 8.549C13.0987 8.73221 12.9592 8.8448 12.8046 8.92248C12.6664 8.99191 12.4988 9.04071 12.2319 9.04071C11.9619 9.04071 11.7989 8.99383 11.6652 8.92699C11.5138 8.85129 11.3754 8.73966 11.1453 8.54893L11.1451 8.54877L11.1393 8.54397C10.6123 8.10749 9.8631 7.48708 8.48427 7.48708C7.10583 7.48708 6.35655 8.10848 5.83003 8.54515L5.82548 8.54893C5.5952 8.73981 5.45707 8.85137 5.3058 8.92707C5.17238 8.99384 5.00963 9.04071 4.73966 9.04071C4.47014 9.04071 4.30757 8.99387 4.17427 8.92717C4.02314 8.85154 3.88518 8.74014 3.65526 8.54964L3.65075 8.54589C3.19169 8.16447 2.56433 7.64321 1.49743 7.51596V5.65601C1.49743 4.62969 2.29906 3.82495 3.24526 3.82495H7.7397H8.23908V3.32556V1.4945H8.73846V3.32556Z" stroke="#9B51E0" stroke-width="0.998763"/>
</svg>
