<svg width="15" height="15" viewBox="0 0 15 15" fill="none" xmlns="http://www.w3.org/2000/svg">
<path d="M2.22608 11.5402C2.26188 11.4084 2.18276 11.2252 2.10725 11.0931C2.08374 11.0538 2.05824 11.0156 2.03084 10.9788C1.38324 9.9967 1.03807 8.84614 1.03812 7.66973C1.02759 4.29296 3.82768 1.55273 7.29019 1.55273C10.3099 1.55273 12.8305 3.64468 13.4195 6.42161C13.5078 6.83331 13.5523 7.25319 13.5525 7.67425C13.5525 11.0558 10.8604 13.8391 7.39788 13.8391C6.84737 13.8391 6.10433 13.7007 5.69912 13.5873C5.2939 13.4739 4.88929 13.3235 4.78491 13.2831C4.67814 13.2421 4.56476 13.221 4.45039 13.2209C4.32546 13.2204 4.20173 13.2453 4.08669 13.294L2.04618 14.0304C2.00148 14.0497 1.95411 14.062 1.9057 14.0671C1.86749 14.067 1.82969 14.0593 1.79448 14.0445C1.75927 14.0296 1.72735 14.008 1.70057 13.9807C1.6738 13.9535 1.65269 13.9212 1.63849 13.8857C1.62428 13.8502 1.61725 13.8123 1.61781 13.7741C1.62032 13.7406 1.62637 13.7074 1.63586 13.6751L2.22608 11.5402Z" stroke="#828282" stroke-width="1.15517" stroke-miterlimit="10" stroke-linecap="round"/>
</svg>
