<svg width="20" height="22" viewBox="0 0 20 22" fill="none" xmlns="http://www.w3.org/2000/svg">
<path d="M11.1969 1.16365L11.0246 1.00462C10.7406 0.742601 10.3752 0.6 9.99929 0.6C9.62335 0.6 9.25801 0.742595 8.97403 1.0046L11.1969 1.16365ZM11.1969 1.16365H11.1983L18.8829 8.25454C19.0444 8.40365 19.1745 8.58691 19.264 8.79299C19.3534 8.99907 19.3999 9.22279 19.4 9.44949C19.4 9.44954 19.4 9.44958 19.4 9.44963V19.7994C19.4 20.229 19.2337 20.6379 18.9425 20.9369C18.6519 21.2354 18.2611 21.4 17.8571 21.4H15C14.596 21.4 14.2053 21.2353 13.9146 20.9369C13.6235 20.6379 13.4571 20.229 13.4571 19.7994V13.9313C13.4571 13.5827 13.3224 13.2453 13.0778 12.994C12.8326 12.7422 12.4966 12.5978 12.1429 12.5978H7.85714C7.50335 12.5978 7.16738 12.7422 6.9222 12.994L7.35207 13.4126L6.9222 12.994C6.67756 13.2453 6.54286 13.5827 6.54286 13.9313V19.7994C6.54286 20.229 6.37654 20.6379 6.08537 20.9369C5.79472 21.2353 5.40397 21.4 5 21.4H2.14286C1.73889 21.4 1.34814 21.2353 1.05749 20.9369C0.766318 20.6379 0.6 20.229 0.6 19.7994V9.44963C0.6 9.44958 0.6 9.44954 0.6 9.44949C0.600069 9.22279 0.646573 8.99907 0.736021 8.79299C0.825438 8.58698 0.95551 8.40378 1.11689 8.2547C1.11695 8.25465 1.11701 8.25459 1.11707 8.25454L8.97401 1.00462L11.1969 1.16365Z" stroke="#777777" stroke-width="1.2"/>
</svg>
