<svg width="21" height="17" viewBox="0 0 21 17" fill="none" xmlns="http://www.w3.org/2000/svg">
<path d="M5.13217 11.3888C5.60199 11.0756 5.91521 10.6057 5.91521 10.1359C5.91521 9.50948 5.60199 9.03966 4.97556 8.72644V6.84714L10.6135 9.35288L19.2269 5.43767L10.6135 1.52246L2 5.43767L3.8793 6.22071V8.72644C3.25287 9.03966 2.93965 9.50948 2.93965 10.1359C2.93965 10.6057 3.25287 11.0756 3.72269 11.3888L2.93965 14.0511C2.46982 15.6172 3.72269 15.6172 3.72269 15.6172H5.28877C5.28877 15.6172 6.54164 15.6172 6.07181 14.0511L5.13217 11.3888Z" stroke="#9B51E0" stroke-width="0.998763"/>
<path d="M7.48288 9.66462V10.1344C7.48288 10.7609 7.16966 11.3873 6.85645 11.8571C7.16966 12.4836 7.48288 13.11 7.48288 14.0497V14.9893C8.26592 15.3025 9.36218 15.6157 10.615 15.6157C14.5303 15.6157 16.0963 13.2666 16.0963 13.2666V8.56836L10.615 11.0741L7.48288 9.66462V9.66462Z" stroke="#9B51E0" stroke-width="0.998763"/>
</svg>
