<svg width="17" height="17" viewBox="0 0 17 17" fill="none" xmlns="http://www.w3.org/2000/svg">
<path d="M5.61161 14.9071L13.1241 7.39462L9.55581 3.82632L2.04331 11.3388C1.93989 11.4424 1.86642 11.572 1.8307 11.7139L0.998047 15.9524L5.2357 15.1197C5.37798 15.0842 5.50813 15.0106 5.61161 14.9071ZM15.5493 4.96941C15.8524 4.66621 16.0227 4.25504 16.0227 3.82632C16.0227 3.39761 15.8524 2.98644 15.5493 2.68324L14.2672 1.40111C13.964 1.09801 13.5528 0.927734 13.1241 0.927734C12.6954 0.927734 12.2842 1.09801 11.981 1.40111L10.6989 2.68324L14.2672 6.25154L15.5493 4.96941Z" stroke="#9B51E0" stroke-width="0.998763"/>
</svg>
