<svg width="16" height="14" viewBox="0 0 16 14" fill="none" xmlns="http://www.w3.org/2000/svg">
<path d="M1.49743 5.20645L8.02273 8.60017L8.02277 8.60019C8.1667 8.67503 8.32654 8.71411 8.48877 8.71411C8.651 8.71411 8.81084 8.67503 8.95477 8.60019L8.95477 8.60019L15.4801 5.20706V10.9389V10.9389C15.4801 11.3767 15.3127 11.7979 15.012 12.116C14.713 12.4326 14.3047 12.6233 13.8702 12.6497L13.7595 12.6527H3.21121H3.21118C2.77344 12.6527 2.35227 12.4852 2.03408 12.1846C1.71757 11.8856 1.52682 11.4773 1.50044 11.0428L1.49743 10.9321V5.20645ZM13.7663 1.39391H13.7664C14.2041 1.39388 14.6253 1.56136 14.9435 1.862C15.243 2.14506 15.4299 2.52595 15.4715 2.93431L8.48877 6.56531L1.5062 2.93437C1.54422 2.55989 1.7048 2.20651 1.96551 1.93057C2.26457 1.61405 2.67283 1.42331 3.10731 1.39692L3.218 1.39391H13.7663Z" stroke="#9B51E0" stroke-width="0.998763"/>
</svg>
