<svg width="16" height="16" viewBox="0 0 16 16" fill="none" xmlns="http://www.w3.org/2000/svg">
<path d="M14.2609 3.21214L12.4693 1.40437C12.3429 1.27617 12.1927 1.17445 12.0272 1.10505C11.8618 1.03566 11.6844 0.999957 11.5053 1C11.1403 1 10.7971 1.14442 10.5397 1.40437L8.6118 3.35146C8.48486 3.4791 8.38415 3.63081 8.31544 3.79788C8.24673 3.96495 8.21138 4.14409 8.21142 4.325C8.21142 4.69369 8.35441 5.04029 8.6118 5.30024L10.0216 6.72403C9.69156 7.45862 9.23277 8.1269 8.66732 8.6966C8.10329 9.26907 7.44166 9.73412 6.7142 10.0694L5.30445 8.64563C5.17806 8.51743 5.02785 8.41571 4.86242 8.34631C4.697 8.27692 4.51963 8.24122 4.3405 8.24126C3.97545 8.24126 3.63226 8.38568 3.37488 8.64563L1.4453 10.591C1.31821 10.7189 1.21741 10.8709 1.14869 11.0383C1.07998 11.2056 1.04471 11.3851 1.04492 11.5663C1.04492 11.935 1.18792 12.2816 1.4453 12.5415L3.23356 14.3476C3.64404 14.7638 4.21097 15 4.79304 15C4.91584 15 5.0336 14.9898 5.14968 14.9694C7.41739 14.5922 9.66659 13.374 11.4818 11.5425C13.2953 9.71262 14.4998 7.44272 14.8783 5.14563C14.9927 4.44393 14.7622 3.72184 14.2609 3.21214V3.21214Z" stroke="#828282"/>
</svg>
